<svg xmlns="http://www.w3.org/2000/svg" xmlns:xlink="http://www.w3.org/1999/xlink" width="1080" zoomAndPan="magnify" viewBox="0 0 810 809.999993" height="1080" preserveAspectRatio="xMidYMid meet" version="1.0"><defs><g/><clipPath id="054461272e"><path d="M 0 396 L 810 396 L 810 576.550781 L 0 576.550781 Z M 0 396 " clip-rule="nonzero"/></clipPath><clipPath id="249a209c1d"><path d="M 0 233.425781 L 810 233.425781 L 810 537 L 0 537 Z M 0 233.425781 " clip-rule="nonzero"/></clipPath><clipPath id="52500acad8"><path d="M 117.867188 292.382812 L 756 292.382812 L 756 524.835938 L 117.867188 524.835938 Z M 117.867188 292.382812 " clip-rule="nonzero"/></clipPath><clipPath id="04374d02b8"><path d="M 595.992188 292.382812 C 684.011719 292.382812 755.367188 344.417969 755.367188 408.609375 C 755.367188 472.796875 684.011719 524.835938 595.992188 524.835938 L 277.242188 524.835938 C 189.21875 524.835938 117.867188 472.796875 117.867188 408.609375 C 117.867188 344.417969 189.21875 292.382812 277.242188 292.382812 Z M 595.992188 292.382812 " clip-rule="nonzero"/></clipPath></defs><g clip-path="url(#054461272e)"><path fill="#ea8439" d="M 809.074219 396.3125 L 809.074219 424.75 C 809.074219 424.957031 809.074219 424.957031 809.074219 425.167969 C 809.074219 508.804688 741.328125 576.550781 657.691406 576.550781 L 152.308594 576.550781 C 68.671875 576.550781 0.921875 508.597656 0.921875 425.167969 C 0.921875 424.75 0.921875 424.539062 0.921875 424.121094 C 0.921875 423.703125 0.921875 423.496094 0.921875 423.078125 L 0.921875 396.3125 Z M 809.074219 396.3125 L 809.074219 424.75 C 809.074219 424.957031 809.074219 424.957031 809.074219 425.167969 C 809.074219 508.804688 741.328125 576.550781 657.691406 576.550781 L 152.308594 576.550781 C 68.671875 576.550781 0.921875 508.597656 0.921875 425.167969 C 0.921875 424.75 0.921875 424.539062 0.921875 424.121094 C 0.921875 423.703125 0.921875 423.496094 0.921875 423.078125 L 0.921875 396.3125 Z M 809.074219 396.3125 " fill-opacity="1" fill-rule="nonzero"/></g><g clip-path="url(#249a209c1d)"><path fill="#fcd24f" d="M 809.074219 383.765625 L 809.074219 384.394531 C 809.074219 384.601562 809.074219 384.601562 809.074219 384.8125 C 809.074219 468.449219 741.328125 536.195312 657.691406 536.195312 L 152.308594 536.195312 C 68.671875 536.195312 0.921875 468.242188 0.921875 384.8125 C 0.921875 384.394531 0.921875 384.183594 0.921875 383.765625 C 0.921875 383.347656 0.921875 383.140625 0.921875 382.722656 C 2.179688 300.128906 69.296875 233.425781 152.308594 233.425781 L 657.691406 233.425781 C 657.691406 233.425781 657.691406 233.425781 657.902344 233.425781 C 740.910156 233.425781 808.449219 300.546875 809.074219 383.765625 Z M 809.074219 383.765625 L 809.074219 384.394531 C 809.074219 384.601562 809.074219 384.601562 809.074219 384.8125 C 809.074219 468.449219 741.328125 536.195312 657.691406 536.195312 L 152.308594 536.195312 C 68.671875 536.195312 0.921875 468.242188 0.921875 384.8125 C 0.921875 384.394531 0.921875 384.183594 0.921875 383.765625 C 0.921875 383.347656 0.921875 383.140625 0.921875 382.722656 C 2.179688 300.128906 69.296875 233.425781 152.308594 233.425781 L 657.691406 233.425781 C 657.691406 233.425781 657.691406 233.425781 657.902344 233.425781 C 740.910156 233.425781 808.449219 300.546875 809.074219 383.765625 Z M 809.074219 383.765625 " fill-opacity="1" fill-rule="nonzero"/></g><path fill="#1f1347" d="M 261.457031 386.066406 C 263.757812 390.039062 264.800781 394.640625 264.800781 400.285156 L 264.800781 409.902344 C 264.800781 418.476562 262.292969 425.167969 257.273438 430.1875 C 252.257812 435.203125 245.566406 437.714844 236.992188 437.714844 L 207.507812 437.714844 L 207.507812 320.621094 L 235.527344 320.621094 C 244.101562 320.621094 250.792969 323.128906 255.8125 328.148438 C 260.828125 333.164062 263.339844 340.066406 263.339844 348.429688 L 263.339844 354.703125 C 263.339844 365.15625 259.367188 372.683594 251.417969 377.074219 C 255.8125 379.167969 259.15625 382.304688 261.457031 386.066406 Z M 225.28125 337.347656 L 225.28125 369.128906 L 233.226562 369.128906 C 237.410156 369.128906 240.546875 368.085938 242.636719 365.992188 C 244.730469 363.902344 245.773438 360.765625 245.773438 356.585938 L 245.773438 348.21875 C 245.773438 344.664062 244.730469 342.15625 242.847656 340.273438 C 240.964844 338.394531 238.246094 337.347656 234.902344 337.347656 Z M 247.238281 398.402344 C 247.238281 394.222656 246.191406 391.085938 244.101562 388.992188 C 242.011719 386.902344 238.875 385.859375 234.691406 385.859375 L 225.28125 385.859375 L 225.28125 420.984375 L 236.363281 420.984375 C 239.917969 420.984375 242.429688 419.941406 244.308594 418.058594 C 246.191406 416.175781 247.238281 413.457031 247.238281 410.113281 C 247.238281 410.113281 247.238281 398.402344 247.238281 398.402344 Z M 337.148438 411.785156 L 318.121094 411.785156 L 314.355469 437.714844 L 296.585938 437.714844 L 316.03125 320.621094 L 339.65625 320.621094 L 359.105469 437.714844 L 341.121094 437.714844 Z M 334.847656 394.847656 L 327.738281 345.921875 L 320.628906 394.847656 Z M 400.503906 431.859375 C 395.277344 426.632812 392.769531 419.941406 392.769531 411.785156 L 392.769531 346.964844 C 392.769531 338.8125 395.277344 332.121094 400.503906 326.894531 C 405.730469 321.664062 412.421875 319.15625 420.578125 319.15625 C 428.730469 319.15625 435.421875 321.664062 440.652344 326.894531 C 445.878906 332.121094 448.386719 338.8125 448.386719 346.964844 L 448.386719 360.765625 L 431.03125 360.765625 L 431.03125 346.964844 C 431.03125 343.621094 429.988281 340.902344 428.105469 339.019531 C 426.222656 336.929688 423.714844 336.09375 420.785156 336.09375 C 417.859375 336.09375 415.351562 337.136719 413.46875 339.019531 C 411.585938 341.109375 410.542969 343.621094 410.542969 346.964844 L 410.542969 411.785156 C 410.542969 415.132812 411.585938 417.847656 413.46875 419.730469 C 415.351562 421.820312 417.859375 422.660156 420.785156 422.660156 C 423.714844 422.660156 426.222656 421.613281 428.105469 419.730469 C 429.988281 417.640625 431.03125 415.132812 431.03125 411.785156 L 431.03125 395.058594 L 448.386719 395.058594 L 448.386719 411.785156 C 448.386719 419.941406 445.878906 426.632812 440.652344 431.859375 C 435.421875 437.085938 428.730469 439.59375 420.578125 439.59375 C 412.421875 439.386719 405.730469 436.875 400.503906 431.859375 Z M 510.90625 389.621094 L 504.214844 402.585938 L 504.214844 437.921875 L 486.441406 437.921875 L 486.441406 320.828125 L 504.214844 320.828125 L 504.214844 368.292969 L 527.632812 320.828125 L 546.660156 320.828125 L 521.78125 370.59375 L 548.542969 437.921875 L 529.515625 437.921875 Z M 578.652344 379.167969 L 626.746094 419.3125 L 626.746094 339.019531 Z M 578.652344 379.167969 " fill-opacity="1" fill-rule="nonzero"/><g clip-path="url(#52500acad8)"><g clip-path="url(#04374d02b8)"><path fill="#fcd24f" d="M 117.867188 292.382812 L 755.289062 292.382812 L 755.289062 524.835938 L 117.867188 524.835938 Z M 117.867188 292.382812 " fill-opacity="1" fill-rule="nonzero"/></g></g><g fill="#ffffff" fill-opacity="1"><g transform="translate(117.86586, 489.307894)"><g><path d="M 6.875 0 L 6.875 -196.640625 L 44.875 -196.640625 L 44.875 0 Z M 6.875 0 "/></g></g></g><g fill="#ffffff" fill-opacity="1"><g transform="translate(169.829493, 489.307894)"><g><path d="M 8.703125 0 L 8.703125 -196.640625 L 49.21875 -196.640625 L 67.296875 -102.5625 L 67.296875 -196.640625 L 105.296875 -196.640625 L 105.296875 0 L 66.84375 0 L 47.15625 -98.4375 L 47.15625 0 Z M 8.703125 0 "/></g></g></g><g fill="#ffffff" fill-opacity="1"><g transform="translate(283.829002, 489.307894)"><g><path d="M 6.875 0 L 6.875 -196.640625 L 44.875 -196.640625 L 44.875 0 Z M 6.875 0 "/></g></g></g><g fill="#ffffff" fill-opacity="1"><g transform="translate(335.792635, 489.307894)"><g><path d="M 54.484375 1.828125 C 40.140625 1.828125 28.65625 -2.671875 20.03125 -11.671875 C 11.40625 -20.679688 7.09375 -33.046875 7.09375 -48.765625 L 7.09375 -139.40625 C 7.09375 -158.945312 10.984375 -173.675781 18.765625 -183.59375 C 26.554688 -193.507812 38.769531 -198.46875 55.40625 -198.46875 C 69.894531 -198.46875 81.566406 -194.5 90.421875 -186.5625 C 99.273438 -178.632812 103.703125 -167.191406 103.703125 -152.234375 L 103.703125 -118.359375 L 64.5625 -118.359375 L 64.5625 -147.421875 C 64.5625 -153.066406 63.875 -156.957031 62.5 -159.09375 C 61.125 -161.238281 58.757812 -162.3125 55.40625 -162.3125 C 51.894531 -162.3125 49.488281 -161.085938 48.1875 -158.640625 C 46.894531 -156.203125 46.25 -152.617188 46.25 -147.890625 L 46.25 -49.21875 C 46.25 -44.03125 47.007812 -40.253906 48.53125 -37.890625 C 50.0625 -35.523438 52.351562 -34.34375 55.40625 -34.34375 C 61.507812 -34.34375 64.5625 -39.300781 64.5625 -49.21875 L 64.5625 -84.703125 L 104.15625 -84.703125 L 104.15625 -47.609375 C 104.15625 -14.648438 87.597656 1.828125 54.484375 1.828125 Z M 54.484375 1.828125 "/></g></g></g><g fill="#ffffff" fill-opacity="1"><g transform="translate(444.298165, 489.307894)"><g><path d="M 6.875 0 L 6.875 -196.640625 L 44.875 -196.640625 L 44.875 0 Z M 6.875 0 "/></g></g></g><g fill="#ffffff" fill-opacity="1"><g transform="translate(496.261799, 489.307894)"><g><path d="M 3.4375 0 L 22.4375 -196.640625 L 89.046875 -196.640625 L 107.828125 0 L 70.515625 0 L 67.765625 -31.8125 L 43.953125 -31.8125 L 41.65625 0 Z M 46.921875 -63.1875 L 64.78125 -63.1875 L 56.078125 -163.21875 L 54.25 -163.21875 Z M 46.921875 -63.1875 "/></g></g></g><g fill="#ffffff" fill-opacity="1"><g transform="translate(607.285407, 489.307894)"><g><path d="M 8.703125 -196.640625 L 69.140625 -196.640625 C 78.753906 -196.640625 86.191406 -194.460938 91.453125 -190.109375 C 96.722656 -185.765625 100.269531 -179.660156 102.09375 -171.796875 C 103.925781 -163.941406 104.84375 -153.910156 104.84375 -141.703125 C 104.84375 -130.554688 103.390625 -121.851562 100.484375 -115.59375 C 97.585938 -109.34375 92.554688 -105 85.390625 -102.5625 C 91.335938 -101.332031 95.644531 -98.351562 98.3125 -93.625 C 100.988281 -88.894531 102.328125 -82.488281 102.328125 -74.40625 L 101.875 0 L 63.40625 0 L 63.40625 -76.921875 C 63.40625 -82.410156 62.335938 -85.914062 60.203125 -87.4375 C 58.066406 -88.96875 54.175781 -89.734375 48.53125 -89.734375 L 48.53125 0 L 8.703125 0 Z M 58.140625 -123.84375 C 63.640625 -123.84375 66.390625 -129.796875 66.390625 -141.703125 C 66.390625 -146.890625 66.160156 -150.78125 65.703125 -153.375 C 65.242188 -155.96875 64.398438 -157.757812 63.171875 -158.75 C 61.953125 -159.75 60.203125 -160.25 57.921875 -160.25 L 48.765625 -160.25 L 48.765625 -123.84375 Z M 58.140625 -123.84375 "/></g></g></g></svg>